<svg width="16" height="16" viewBox="0 0 16 16" fill="none" xmlns="http://www.w3.org/2000/svg">
<g clip-path="url(#clip0_401_81)">
<path d="M6.39744 0.125H9.60257C11.3027 0.125 12.9331 0.800365 14.1353 2.00252C15.3375 3.20468 16.0128 4.83515 16.0128 6.53526C16.0128 8.23536 15.3375 9.86584 14.1353 11.068C12.9331 12.2702 11.3027 12.9455 9.60257 12.9455V15.75C5.59616 14.1474 -0.0128174 11.7436 -0.0128174 6.53526C-0.0128174 4.83515 0.662547 3.20468 1.8647 2.00252C3.06686 0.800365 4.69733 0.125 6.39744 0.125ZM8 11.3429H9.60257C10.2339 11.343 10.8591 11.2186 11.4424 10.977C12.0257 10.7354 12.5557 10.3812 13.0021 9.93481C13.4486 9.48837 13.8027 8.95838 14.0443 8.37508C14.2859 7.79178 14.4103 7.16661 14.4103 6.53526C14.4103 5.9039 14.2859 5.27873 14.0443 4.69543C13.8027 4.11214 13.4486 3.58214 13.0021 3.1357C12.5557 2.68927 12.0257 2.33514 11.4424 2.09353C10.8591 1.85192 10.2339 1.72756 9.60257 1.72756H6.39744C5.12236 1.72756 3.8995 2.23409 2.99789 3.1357C2.09627 4.03732 1.58975 5.26018 1.58975 6.53526C1.58975 9.42789 3.5625 11.3157 8 13.3301V11.3429Z" fill="black"/>
<path d="M9.83178 5.17201H9.32733L8.73553 6.7463C8.19523 6.62043 7.68609 6.38536 7.23912 6.05542C7.7611 5.48172 8.10874 4.76989 8.24095 4.00403H8.97507C9.04981 4.00403 9.12149 3.9742 9.17434 3.9211C9.22719 3.868 9.25688 3.79598 9.25688 3.72089C9.25688 3.64579 9.22719 3.57377 9.17434 3.52067C9.12149 3.46757 9.04981 3.43774 8.97507 3.43774H7.10807V2.81199C7.10807 2.7369 7.07838 2.66488 7.02553 2.61178C6.97268 2.55868 6.901 2.52885 6.82626 2.52885C6.75152 2.52885 6.67984 2.55868 6.62699 2.61178C6.57414 2.66488 6.54445 2.7369 6.54445 2.81199V3.43774H4.67605C4.60131 3.43774 4.52963 3.46757 4.47678 3.52067C4.42393 3.57377 4.39424 3.64579 4.39424 3.72089C4.39424 3.79598 4.42393 3.868 4.47678 3.9211C4.52963 3.9742 4.60131 4.00403 4.67605 4.00403H5.41157C5.54316 4.76981 5.89033 5.48169 6.412 6.05542C5.93134 6.40908 5.38065 6.65483 4.79722 6.77603C4.72248 6.7841 4.654 6.82167 4.60683 6.88048C4.55966 6.93929 4.53767 7.01452 4.54571 7.08961C4.55374 7.1647 4.59114 7.23352 4.64967 7.28091C4.7082 7.3283 4.78307 7.35039 4.85781 7.34232C4.87871 7.34284 4.89957 7.34046 4.91981 7.33524C5.61484 7.19236 6.26741 6.88948 6.82626 6.45041C7.33045 6.84769 7.91312 7.13244 8.53545 7.28569L7.55333 9.89063H8.28182L8.66226 8.79202H10.4856L10.8702 9.89063H11.6058L9.83178 5.17201ZM7.67592 4.00403C7.55883 4.63313 7.26554 5.21561 6.83049 5.68309C6.39512 5.21583 6.10178 4.63326 5.98506 4.00403H7.67592ZM8.89898 8.13088L9.57955 6.17293L10.2545 8.13088H8.89898Z" fill="black"/>
</g>
<defs>
<clipPath id="clip0_401_81">
<rect width="16" height="16" fill="white"/>
</clipPath>
</defs>
</svg>
